<svg width="1440" height="377" viewBox="0 0 1440 377" fill="none" xmlns="http://www.w3.org/2000/svg">
<g opacity="0.15">
<path d="M1374.19 147.88C1407.7 184.97 1434.88 249.451 1384.8 294.973C1379.63 299.666 1331.18 342.248 1258.3 336.96C1169.54 330.52 1151.34 260.812 1053.38 242.716C947.298 223.119 885.037 289.425 833.231 269.056C771.971 244.97 764.451 115.071 875.331 59.3957C1008.91 -7.67451 1284.08 48.1512 1374.19 147.88Z" fill="#EBC136"/>
<path d="M539.245 339.639C570.307 320.569 604.155 282.148 583.134 243.285C580.966 239.278 560.262 202.654 511.679 193.834C452.505 183.09 423.162 226.52 355.092 221.996C281.375 217.096 257.688 162.301 218.971 167.114C173.189 172.806 135.627 258.21 193.513 314.149C263.248 381.538 455.723 390.917 539.245 339.639Z" fill="#EBC136"/>
<path d="M1433.62 158.365C1451.76 142.046 1471.7 109.494 1459.95 77.1918C1458.74 73.8615 1447.14 43.4303 1419.17 36.5946C1385.09 28.2687 1367.7 64.9645 1328.42 61.9464C1285.89 58.678 1272.75 13.0665 1250.34 17.5345C1223.83 22.8178 1201.28 94.751 1234.15 140.934C1273.76 196.569 1384.86 202.244 1433.62 158.365Z" fill="#8047F8"/>
<path d="M246.937 46.8915C259.507 68.6161 271.932 110.056 259.695 147.492C258.433 151.351 246.5 186.558 224.055 191.502C196.717 197.524 186.675 151.405 155.792 150.442C122.347 149.4 107.765 202.665 90.7319 194.678C70.5904 185.234 59.883 96.1753 89.8998 44.5305C126.06 -17.6848 213.139 -11.5237 246.937 46.8915Z" fill="#EBC136"/>
<path d="M888.507 342.947C862.621 323.727 837.462 285.18 863.926 246.528C866.654 242.543 892.434 206.123 939.6 197.62C997.048 187.262 1017.11 230.78 1081.84 226.683C1151.94 222.246 1183.66 167.712 1219.2 172.753C1261.23 178.713 1281.76 264.166 1217.71 319.631C1140.55 386.449 958.112 394.627 888.507 342.947Z" fill="#EBC136"/>
<path d="M814.922 309.538C836.564 290.513 859.249 253.904 841.967 220.187C840.185 216.71 823.248 184.989 787.43 179.962C743.805 173.84 724.654 214.687 674.868 214.695C620.953 214.704 600.92 166.808 572.979 173.46C539.939 181.327 516.942 260.444 561.931 307.321C616.129 363.792 756.728 360.695 814.922 309.538Z" fill="#8047F8"/>
<path d="M862.472 51.0038C903.019 61.6656 946.079 81.4646 915.336 98.2573C912.167 99.9887 881.993 115.762 816.11 117.009C735.863 118.528 699.181 96.6698 607.369 94.7841C507.942 92.742 472.601 116.767 420.852 112.269C359.659 106.95 314.602 65.1453 396 42.5908C494.058 15.42 753.443 22.3354 862.472 51.0038Z" fill="#8047F8"/>
<path d="M195.139 292.866C214.225 270.714 234.35 228.381 219.454 189.978C217.918 186.018 203.31 149.899 171.98 144.685C133.82 138.335 116.761 185.475 73.1632 186.25C25.9491 187.089 8.74423 132.467 -15.771 140.526C-44.7595 150.056 -65.4579 241.145 -26.3915 294.214C20.6708 358.144 143.816 352.431 195.139 292.866Z" fill="#8047F8"/>
</g>
</svg>
